<?xml version="1.0" encoding="utf-8"?>
<!-- Generator: Adobe Illustrator 25.3.0, SVG Export Plug-In . SVG Version: 6.00 Build 0)  -->
<svg version="1.1" id="Layer_1" xmlns="http://www.w3.org/2000/svg" xmlns:xlink="http://www.w3.org/1999/xlink" x="0px" y="0px"
	 viewBox="0 0 200 200" style="enable-background:new 0 0 200 200;" xml:space="preserve">
<style type="text/css">
	.st0{fill:#262760;}
	.st1{fill:#FFFFFF;}
	.st2{fill:none;stroke:#000000;stroke-miterlimit:10;}
	.st3{clip-path:url(#SVGID_2_);fill:#262760;}
	.st4{clip-path:url(#SVGID_2_);fill:#009D4C;}
	.st5{clip-path:url(#SVGID_2_);fill:#272C5E;}
	.st6{clip-path:url(#SVGID_2_);fill:#FFFFFF;}
	.st7{clip-path:url(#SVGID_2_);fill:none;stroke:#000000;stroke-miterlimit:10;}
	.st8{clip-path:url(#SVGID_4_);fill:#262760;}
	.st9{clip-path:url(#SVGID_4_);fill:#009D4C;}
	.st10{clip-path:url(#SVGID_4_);fill:#272C5E;}
	.st11{clip-path:url(#SVGID_4_);fill:#FFFFFF;}
	.st12{clip-path:url(#SVGID_4_);fill:none;stroke:#000000;stroke-miterlimit:10;}
	.st13{fill:#009D4C;}
	.st14{fill:#272C5E;}
</style>
<circle class="st1" cx="100" cy="100" r="95.85"/>
<g>
	<path class="st0" d="M100,16.84c-45.93,0-83.16,37.23-83.16,83.16c0,45.93,37.23,83.16,83.16,83.16
		c45.93,0,83.16-37.23,83.16-83.16C183.16,54.07,145.93,16.84,100,16.84"/>
	<path class="st13" d="M156.04,99.9c0,30.92-25.07,55.99-55.99,55.99S44.05,130.82,44.05,99.9c0-30.92,25.07-55.99,55.99-55.99
		S156.04,68.97,156.04,99.9"/>
	<path class="st14" d="M153.3,100.06c0-6.6-1.22-12.92-3.45-18.75c-0.35-0.83-0.41-1.32-0.77-1.94
		c-8.07-18.88-26.82-32.15-48.61-32.15c-29.13,0-52.83,23.7-52.83,52.84c0,8.48,2.02,16.48,5.58,23.59
		c0.05,0.27,0.17,0.53,0.38,0.74c8.82,16.92,26.51,28.51,46.88,28.51c20.16,0,37.71-11.35,46.61-27.99c0.23-0.6,0.66-1.01,1.04-2.02
		c2.82-5.88,4.58-12.36,5.05-19.2C153.37,101.52,153.3,100.65,153.3,100.06 M145.12,122.82c-1.16,0.6-3.31,1.62-6.42,2.77
		c2.25-4.96,3.86-10.89,4.45-17.96c3.11-1.05,5.57-2,7.22-2.66C149.74,111.35,147.91,117.37,145.12,122.82 M150.61,100.06
		c0,0.62-0.03,1.24-0.05,1.86c-1.33,0.56-3.82,1.56-7.22,2.74c0.05-1.28,0.08-2.58,0.06-3.94c-0.08-5.96-0.85-11.23-2.07-15.89
		c2.72-0.89,4.81-1.67,6.15-2.2C149.5,88.07,150.61,93.94,150.61,100.06 M62.92,100.75c0-4.95,0.43-9.56,1.27-13.85
		c3.82,1.36,8.54,2.73,14.07,3.75c-0.47,3.24-0.71,6.57-0.63,9.94c0.09,3.84,0.55,7.58,1.26,11.2c-5.94-1.1-11.19-2.64-15.54-4.19
		C63.08,105.41,62.92,103.14,62.92,100.75 M122.36,100.48c0.52,3.4,0.58,6.71,0.28,9.9c-6.6,1.37-13.96,2.45-21.71,2.85V92.19
		c6.86-0.27,13.31-1.05,19.13-2.07C121.02,93.46,121.82,96.91,122.36,100.48 M100.93,149.22v-14.09c4.65-0.16,8.94-0.5,12.89-0.97
		C108.59,142.2,102.72,147.65,100.93,149.22 M98.17,147.85c-1.49-2.03-4.65-6.58-7.9-12.78c1.88,0.09,3.83,0.15,5.87,0.15
		c0.66,0,1.35-0.02,2.03-0.03V147.85z M80.39,100.52c-0.08-3.18,0.15-6.33,0.6-9.41c4.66,0.73,9.83,1.19,15.46,1.19
		c0.56,0,1.15-0.02,1.72-0.03v21.07c-5.81,0.15-11.3-0.28-16.36-1.06C81,108.49,80.49,104.54,80.39,100.52 M110.16,67.38
		c-2.96,0.58-6.07,1-9.23,1.17V53.69C103.17,56.53,106.63,61.27,110.16,67.38 M102.87,51.72c3.84,0.86,10.38,2.82,16.94,7.12
		c1.94,1.27,3.72,2.66,5.39,4.14c-3.26,1.26-7.48,2.69-12.22,3.79C109.1,59.96,105.26,54.73,102.87,51.72 M98.17,68.6
		c-3.38-0.01-6.57-0.39-9.48-1c3.76-7.6,7.75-13.25,9.48-15.57V68.6z M98.17,71.37v18.15c-6.1,0.1-11.7-0.37-16.71-1.16
		c1.27-6.6,3.52-12.81,6-18.2C90.72,70.89,94.31,71.36,98.17,71.37 M95.82,116.13c0.77,0,1.56-0.03,2.35-0.05v16.36
		c-3.32,0.05-6.43-0.03-9.33-0.21c-2.41-4.96-4.74-10.75-6.34-17.04C86.67,115.77,91.13,116.13,95.82,116.13 M100.93,132.37v-16.38
		c7.58-0.38,14.82-1.41,21.34-2.72c-1.07,6.64-3.61,12.69-6.61,17.87C111.23,131.74,106.32,132.18,100.93,132.37 M100.93,89.44V71.3
		c3.69-0.18,7.28-0.7,10.65-1.39c2.8,5.12,5.54,11.06,7.65,17.57C113.65,88.44,107.48,89.17,100.93,89.44 M114.37,69.28
		c5.19-1.26,9.72-2.86,13.04-4.2c4.86,4.96,8.39,10.94,10.58,17.93c-4.27,1.31-9.72,2.76-16.02,3.97
		C119.87,80.45,117.16,74.47,114.37,69.28 M127.99,61.84c-2.23-2.11-4.5-3.88-6.68-5.3c-4.16-2.73-8.27-4.55-11.79-5.78
		c8.03,1.47,15.39,4.86,21.61,9.68C130.45,60.76,129.38,61.25,127.99,61.84 M73.65,61.86c-1.71-0.99-2.69-1.7-2.72-1.73
		c-0.14-0.1-0.3-0.17-0.46-0.22c5.52-4.14,11.93-7.15,18.87-8.73c-2.97,1.22-6.32,2.94-9.69,5.39C77.68,58,75.65,59.75,73.65,61.86
		 M81.21,58.87c4.89-3.57,9.81-5.54,13.36-6.61c-2.18,3.06-5.54,8.18-8.69,14.66c-3.91-1.06-7.19-2.45-9.69-3.7
		C77.74,61.66,79.4,60.2,81.21,58.87 M84.69,69.47C82.22,74.93,80,81.19,78.73,87.9c-5.5-1.03-10.18-2.41-13.93-3.76
		c1.82-7.35,4.97-13.63,9.43-18.8C76.84,66.71,80.41,68.28,84.69,69.47 M79.52,114.73c1.5,6.33,3.72,12.18,6.08,17.23
		c-5.21-0.5-9.7-1.34-13.5-2.32c-3.76-5.07-6.8-11.3-8.25-18.9C68.3,112.26,73.59,113.72,79.52,114.73 M87.01,134.86
		c2.61,5.18,5.25,9.34,7.15,12.11c-5.38-2.45-12.86-6.79-19.16-13.79C78.52,133.92,82.52,134.51,87.01,134.86 M117.48,133.67
		c6.13-0.9,11.31-2.08,15.55-3.3c-3.08,4.63-7.09,8.55-12.02,11.74c-5.66,3.65-11.39,5.51-15.32,6.44
		C108.83,145.46,113.47,140.33,117.48,133.67 M119.23,130.6c2.8-5.26,5.07-11.32,5.95-17.96c5.77-1.27,10.91-2.73,15.14-4.08
		c-0.67,6.88-2.41,12.97-5.2,18.27C130.98,128.16,125.69,129.54,119.23,130.6 M125.46,109.77c0.22-3.13,0.13-6.37-0.38-9.71
		c-0.55-3.59-1.34-7.08-2.31-10.44c6.26-1.21,11.68-2.65,15.96-3.97c1.19,4.64,1.84,9.67,1.92,15.11c0.02,1.65-0.03,3.26-0.11,4.84
		C136.4,106.97,131.28,108.45,125.46,109.77 M140.55,82.2c-2.47-7.78-6.29-13.73-10.47-18.25c1.88-0.83,3.02-1.41,3.18-1.5
		c0.06-0.03,0.1-0.09,0.16-0.13c5.56,4.86,10.03,10.91,13.02,17.77C145.16,80.59,143.16,81.34,140.55,82.2 M68.75,61.26
		c0.01,0.41,0.18,0.81,0.53,1.07c0.13,0.1,1,0.74,2.5,1.64c-3.91,4.69-7.44,10.94-9.58,19.19c-4.15-1.65-6.75-3.09-7.5-3.53
		C57.91,72.47,62.74,66.18,68.75,61.26 M61.56,85.92c-0.92,4.41-1.47,9.31-1.47,14.83c0,1.99,0.12,3.89,0.31,5.73
		c-5.32-2.1-8.85-4.02-10.02-4.69c-0.02-0.58-0.04-1.15-0.04-1.72c0-6.29,1.17-12.31,3.3-17.86C54.79,82.86,57.49,84.32,61.56,85.92
		 M50.58,105.05c2.06,1.1,5.55,2.82,10.22,4.59c1.19,7.43,3.78,13.63,7.02,18.74c-7.28-2.4-11.16-5.08-12.13-5.81
		C52.98,117.21,51.2,111.3,50.58,105.05 M70.41,132.08c3.13,4.06,6.59,7.31,9.83,9.81c4.73,3.65,9.42,6.15,13.09,7.79
		c-14.5-2.07-27.01-10.37-34.74-22.1C61.31,129,65.21,130.67,70.41,132.08 M117.62,147.17c1.57-0.78,3.17-1.66,4.78-2.69
		c4.97-3.19,10.4-8.05,14.49-15.3c2.33-0.78,4.27-1.53,5.84-2.2C136.84,136.19,128.04,143.37,117.62,147.17"/>
	<path class="st1" d="M106.96,73.14l-0.2-0.09l-0.22,0.04c-1.12,0.19-3.09,0.5-3.56,0.5c-0.72,0-1.47,0.57-1.73,1.32
		c-0.22,0.63-0.06,1.24,0.44,1.65c0.41,0.34,0.93,0.54,1.39,0.71c0.4,0.15,0.85,0.33,0.98,0.51c0.44,0.6,1.29,0.69,2.11,0.77
		c0.31,0.03,0.75,0.08,0.82,0.08c0.25,0.34,0.55,0.41,0.75,0.41c0.46,0,0.72-0.34,0.89-0.57c0.06-0.08,0.18-0.25,0.26-0.27
		l0.24,0.02c1.04,0,1.34-0.95,1.48-1.41c0.03-0.1,0.08-0.25,0.1-0.28l0.26-0.39l-0.08-0.35C110.69,74.95,108.64,73.89,106.96,73.14"
		/>
	<path class="st1" d="M111.51,75.76c0.1,0.83,0.8,1.82,2.46,1.87c0.27,0,0.51,0.01,0.73,0.01l1.03-0.01c0.69,0,0.76,0.03,1.05,0.46
		c0.36,0.53,0.92,0.8,1.61,0.8c0.87,0,1.74-0.45,1.97-0.61l0.41-0.29l-0.08-0.46c-0.02-0.09-0.04-0.17-0.08-0.24
		c0.02-0.03,0.05-0.06,0.07-0.1c0.39-0.61,0.07-1.38-0.03-1.64c-0.78-1.92-3.17-3.09-5.87-2.79l-0.25,0.03l-0.17,0.17
		c0,0-0.44,0.4-1.43,0.66C112.01,73.86,111.4,74.78,111.51,75.76"/>
	<path class="st1" d="M121.72,82.77c-0.36-0.27-0.73-0.56-1.07-0.9c-0.49-0.5-1.32-0.74-2.53-0.74c-1.16,0-3.22,0.31-4.54,0.81
		l0.14-0.72l-1.1,0.26c-0.2,0.05-0.84,0.22-1.36,0.58c-0.75-0.81-2.31-1.78-5.49-1.95c-2.61-0.13-3.02,0.92-3.06,1.55
		c-0.11,1.58,2.32,3.58,3.2,3.7c0.14,0.02,0.34,0.04,0.57,0.07c3.15,0.34,3.66,0.78,3.73,0.95l0.23,0.86l0.8-0.4
		c0.25-0.12,0.51-0.4,0.64-0.83c1.31,0.12,3.41,0.35,4.08,0.55c0.25,0.08,0.58,0.2,0.94,0.34c1,0.38,2.25,0.87,3.23,0.87
		c0.29,0,0.54-0.04,0.76-0.12c0.25-0.09,0.44-0.1,0.64-0.1c0.82-0.03,1.31-0.29,1.74-1.58C123.83,84.38,122.66,83.49,121.72,82.77"
		/>
	<path class="st1" d="M102.86,86.33c-1.27-0.01-3.17-0.33-3.78-0.57l-0.03-0.25c0.25-0.28,0.48-0.61,0.64-1.03
		c0.56-1.43,0.26-3.4-0.91-6.03c0.04-0.37,0.14-0.77,0.23-0.92c0.34-0.1,0.73-0.44,0.88-1.42c0.07-0.46,0.42-3.72-2.96-6.94
		c0.71,0.15,1.19,0.37,1.62,0.58c0.51,0.25,1,0.48,1.66,0.48c0.26,0,0.53-0.04,0.83-0.12c0.53-0.14,1.08-0.21,1.56-0.27
		c1.08-0.13,2.19-0.27,2.49-1.33c0.15-0.53,0.27-1.06,0.24-1.55c0.33,0.32,0.9,0.48,1.72,0.69c0.56,0.15,1.14,0.22,1.73,0.22
		c1.44,0,2.57-0.42,3.01-0.68c0.02-0.01,0.1-0.03,0.16-0.04c0.62-0.15,1.3-0.43,1.55-1.95c0.07-0.44-0.03-0.86-0.32-1.2
		c-0.78-0.94-2.72-1.06-4.98-1.11l-0.77-0.02l-0.08,0.02c-0.84,0.16-2.27,0.83-2.27,2.33c0,0.25-0.02,0.44-0.05,0.58
		c-0.01,0.1-0.01,0.18-0.01,0.26c-0.19-0.22-0.51-0.48-1.09-0.48c-0.27,0-0.73-0.12-1.22-0.26c-0.93-0.25-2.12-0.58-3.37-0.45
		c-2.09,0.22-3.77,2.75-3.96,3.04v0c-0.85-0.61-1.84-1.2-3.02-1.75l-0.27-0.07c-1.83-0.08-4.01-0.24-4.26-0.33
		c-0.41-0.47-1.36-1.56-3.82-1.56c-1.68,0-3.8,0.53-6.3,1.56c-3.27,1.36-5.52,3.8-6.5,7.06c-1.16,3.85-0.39,8.62,2.06,12.25
		c0.1,0.1,2.56,2.62,4.05,3.91c0.59,0.51,1.22,0.83,2.02,1.22c1.41,0.7,3.33,1.66,6.5,4.45c2.59,2.29,3.55,3.16,3.91,3.5
		c0.1,0.67,0.64,2.14,3.34,3.21c0.88,0.36,1.55,0.52,2.08,0.52c1.75,0,1.85-1.63,1.92-2.95l0.02-0.33c0.15-2.46-2.54-4.33-3.94-4.74
		c-0.83-0.24-4.44-3.34-5.33-4.64c0.78-0.42,3.31-0.92,4.73-1.21c1.94-0.38,3.16-0.63,3.77-0.95c0.17-0.08,0.36-0.17,0.57-0.25
		c0.15-0.07,0.32-0.14,0.48-0.21c-0.19,0.76-0.07,1.68,0.83,2.34c0.33,0.24,0.59,0.56,0.88,0.9c0.66,0.78,1.49,1.76,3.23,1.76
		c0.66,0,1.1,0.17,1.45,0.3c0.26,0.1,0.48,0.18,0.73,0.18c0.96,0,1.1-1.05,1.18-1.61c0.17-1.27-0.11-2.44-0.79-3.22
		C104.39,86.67,103.66,86.33,102.86,86.33"/>
	<path class="st1" d="M118.28,91.67l-0.16-0.14c-0.45-0.41-1.14-1.15-1.24-1.49c-0.18-0.57-0.77-0.95-1.47-0.95
		c-0.54,0-0.99,0.23-1.2,0.63c-0.46-0.1-0.97-0.13-1.33-0.02c-0.17,0.05-0.74,0.1-1.44,0.1c-0.4,0-0.72-0.02-0.96-0.04
		c0.04-0.24,0.02-0.53-0.17-0.79c-0.14-0.19-0.41-0.41-0.92-0.41l-0.16,0.01c-0.55,0.04-0.91,0.2-1.26,0.36
		c-0.32,0.14-0.62,0.28-1.15,0.36l-0.41,0.07l-0.15,0.39c-0.61,1.54-0.28,1.93-0.14,2.1c0.15,0.19,0.39,0.32,0.75,0.52
		c0.34,0.19,0.97,0.54,1.12,0.79c0.64,1.06,1.81,1.06,2.2,1.06c0.43,0,0.72-0.22,0.97-0.45c0.21,0.18,0.36,0.47,0.4,0.56l0.24,0.63
		l0.65-0.19c0.09-0.03,0.43-0.1,0.63-0.09c0.08,0.37,0.41,1.02,1.68,1.02c0.64,0,1.4-0.17,1.64-0.29c0.05,0,0.12,0.01,0.18,0.02
		c0.13,0.02,0.27,0.03,0.41,0.03c0.46,0,1.26-0.2,1.39-1.51c0.13-1.38,0.02-1.94-0.02-2.07L118.28,91.67z"/>
	<path class="st1" d="M93.54,125.37c-0.36-0.23-0.76-0.49-0.85-0.7c-0.31-0.68-1.12-0.94-1.91-1.19c-0.29-0.09-0.74-0.24-0.79-0.24
		c-0.24-0.52-0.66-0.57-0.82-0.57c-0.37,0-0.61,0.22-0.81,0.39c-0.08,0.06-0.23,0.2-0.31,0.2c-0.17-0.07-0.35-0.1-0.52-0.1
		c-0.83,0-1.22,0.69-1.45,1.1c-0.05,0.09-0.13,0.24-0.15,0.26l-0.33,0.32l0.01,0.36c0.02,0.9,2.07,2.51,3.29,3.4l0.18,0.13
		l0.22,0.01c1.14,0.04,3.13,0.14,3.59,0.24c0.1,0.02,0.2,0.03,0.31,0.03h0c0.7,0,1.44-0.47,1.75-1.12c0.25-0.52,0.18-1.1-0.18-1.55
		C94.42,125.94,93.95,125.64,93.54,125.37"/>
	<path class="st1" d="M81.41,127.39l0.2-0.12c0.01,0,0.51-0.3,1.53-0.35c0.95-0.05,1.74-0.82,1.84-1.8
		c0.08-0.83-0.41-1.95-2.02-2.34c-0.53-0.13-0.96-0.21-1.32-0.28c-1.12-0.22-1.12-0.23-1.34-0.75c-0.19-0.44-0.69-1.17-2.03-1.17
		c-0.66,0-1.26,0.18-1.44,0.25l-0.46,0.2l-0.02,0.47c0,0.09,0.01,0.18,0.03,0.25c-0.06,0.05-0.11,0.1-0.15,0.15
		c-0.29,0.35-0.37,0.85-0.25,1.55c0.37,2.06,2.5,3.68,5.17,3.94L81.41,127.39z"/>
	<path class="st1" d="M77.28,117.24c0.85,1.31,3.55,1.5,5.1,1.5c0.73,0,1.34-0.04,1.83-0.11l-0.28,0.66l1.12-0.03
		c0.21,0,0.87-0.04,1.46-0.29c0.57,0.95,1.89,2.23,4.97,3.05c0.6,0.16,1.1,0.24,1.53,0.24c1.44,0,1.75-0.9,1.82-1.28
		c0.26-1.46-1.53-3.81-2.41-4.13c-0.13-0.05-0.32-0.1-0.54-0.18c-3.02-0.98-3.42-1.51-3.46-1.7l-0.05-0.89l-0.86,0.23
		c-0.27,0.07-0.58,0.28-0.8,0.68c-1.25-0.39-3.26-1.05-3.88-1.39c-0.23-0.13-0.53-0.32-0.85-0.53c-1.17-0.75-2.66-1.69-3.75-1.55
		c-0.28,0.04-0.48,0-0.65-0.03c-1.01-0.17-1.52,0.31-2.03,1.19c-0.85,1.45,0.11,2.56,0.87,3.45
		C76.72,116.48,77.03,116.84,77.28,117.24"/>
	<path class="st1" d="M81.76,108.31c0.41,0.56,0.88,1.38,0.91,1.71c0.12,1.22,1.92,1.6,2.55,0.87c0.37,0.17,0.8,0.3,1.18,0.3l0.17,0
		c0.53,0,1.67,0.23,2.32,0.43c-0.09,0.24-0.14,0.53,0.02,0.84c0.16,0.32,0.48,0.52,0.95,0.58c0.15,0.02,0.29,0.03,0.42,0.03h0
		c0.34,0,0.62-0.06,0.89-0.12c0.29-0.06,0.56-0.12,0.97-0.12l0.65,0.03l0.23-0.34c0.91-1.38,0.68-1.84,0.57-2.03
		c-0.11-0.22-0.32-0.4-0.63-0.67c-0.29-0.26-0.84-0.73-0.93-1c-0.4-1.17-1.55-1.41-1.93-1.5l-0.24-0.02c-0.34,0-0.59,0.14-0.79,0.29
		c-0.18-0.22-0.27-0.55-0.29-0.66l-0.11-0.67l-0.84,0.06c-0.22,0-0.37-0.02-0.47-0.05c0-0.28-0.1-0.55-0.29-0.77
		c-0.52-0.59-1.6-0.68-2.19-0.68c-0.17,0-0.49,0.01-0.61,0.05c-0.05-0.01-0.11-0.03-0.17-0.05c-0.19-0.07-0.43-0.15-0.7-0.15
		c-0.44,0-1.04,0.21-1.36,1.22c-0.42,1.33-0.42,1.9-0.41,2.04l0.02,0.2L81.76,108.31z"/>
	<path class="st1" d="M124.3,123.86c-0.08-0.13-1.96-3.09-3.15-4.67c-0.47-0.62-1.02-1.06-1.72-1.61c-1.23-0.97-2.92-2.31-5.44-5.7
		c-2.07-2.77-2.82-3.83-3.1-4.23c0.04-0.68-0.19-2.23-2.6-3.84c-3.26-2.17-3.93-0.27-4.42,1.55l-0.09,0.32
		c-0.66,2.37,1.59,4.76,2.88,5.45c0.76,0.41,3.65,4.18,4.26,5.64c-0.36,0.1-1.22,0.22-3.22,0.22c-0.55,0-1.1-0.01-1.65-0.02
		c-0.52-0.01-1.03-0.02-1.5-0.02c-1.27,0-1.96,0.05-2.38,0.17c-0.18,0.05-0.39,0.09-0.61,0.13c-0.16,0.03-0.34,0.07-0.51,0.1
		c0.34-0.71,0.42-1.62-0.33-2.46c-0.27-0.3-0.46-0.67-0.67-1.06c-0.49-0.91-1.1-2.03-2.8-2.39c-0.65-0.14-1.05-0.39-1.36-0.59
		c-0.28-0.18-0.55-0.35-0.89-0.35c-0.78,0-1.08,0.82-1.27,1.36c-0.43,1.2-0.39,2.41,0.11,3.31c0.38,0.7,1.03,1.18,1.81,1.35
		c1.24,0.27,3.04,0.97,3.59,1.34l-0.02,0.25c-0.3,0.22-0.59,0.5-0.84,0.87c-0.84,1.28-0.96,3.27-0.35,6.08
		c-0.12,0.35-0.3,0.72-0.42,0.86c-0.64,0.05-1.01,0.76-1.21,1.37c-0.6,1.79-0.37,4.46,1.55,7.26c-0.68-0.29-1.12-0.62-1.5-0.92
		c-0.56-0.43-1.14-0.87-2.15-0.87l-0.21,0c-0.13,0.01-0.25,0.01-0.37,0.01c-0.43,0-0.84-0.04-1.21-0.07
		c-0.36-0.03-0.68-0.05-0.97-0.05c-0.36,0-1.3,0-1.75,0.84c-0.25,0.49-0.48,0.98-0.55,1.46c-0.26-0.38-0.79-0.66-1.54-1.03
		c-1.21-0.6-2.38-0.73-3.16-0.73c-0.7,0-1.27,0.1-1.57,0.2c-0.03,0.01-0.11,0.01-0.17,0.01c-0.63,0.02-1.36,0.15-1.92,1.59
		c-0.17,0.42-0.14,0.85,0.06,1.24c0.57,1.09,2.44,1.6,4.64,2.11l0.67,0.16l0.19,0.02c1.06,0,2.39-0.47,2.67-1.81
		c0.05-0.24,0.12-0.42,0.17-0.56c0.03-0.09,0.04-0.17,0.07-0.25c0.13,0.26,0.4,0.57,0.97,0.69c0.27,0.06,0.69,0.27,1.14,0.51
		c0.87,0.45,1.96,1,3.21,1.13c0.1,0.01,0.19,0.02,0.29,0.02c1.99,0,3.98-1.95,4.2-2.17h0c0.71,0.78,1.57,1.57,2.6,2.34l0.25,0.12
		c1.77,0.46,3.87,1.05,4.1,1.2c0.39,0.69,1.41,2.53,5.7,2.53c1.22,0,2.63-0.15,4.2-0.44c3.48-0.65,6.18-2.58,7.82-5.57
		C125.73,132.75,125.95,127.92,124.3,123.86"/>
	<path class="st1" d="M100,186.09c-22.99,0-44.61-8.95-60.87-25.21C22.87,144.61,13.91,122.99,13.91,100
		c0-22.99,8.95-44.61,25.21-60.87C55.39,22.87,77.01,13.91,100,13.91c23,0,44.61,8.95,60.87,25.21
		c16.26,16.26,25.21,37.88,25.21,60.87c0,22.99-8.95,44.61-25.21,60.87C144.61,177.13,123,186.09,100,186.09 M100,17.58
		c-45.44,0-82.42,36.97-82.42,82.42c0,45.45,36.97,82.42,82.42,82.42c45.45,0,82.42-36.97,82.42-82.42
		C182.42,54.55,145.45,17.58,100,17.58"/>
	<polygon class="st1" points="58.42,33.1 68.77,28.83 74.3,35.23 73.62,26.83 83.6,22.71 85.06,26.26 83.76,26.79 87.78,36.54 
		89.08,36 90.54,39.55 81.89,43.12 80.42,39.57 81.72,39.04 78.19,30.48 78.88,44.36 76.54,45.33 66.64,35.2 70.18,43.8 
		71.48,43.26 72.95,46.81 65.37,49.94 63.9,46.39 65.21,45.85 61.18,36.11 59.89,36.65 	"/>
	<path class="st1" d="M104.02,36.96l1.41,0.09l-0.28-1.87l-3.16-0.2l-0.49,1.82l1.4,0.09l-0.25,3.83l-7.99-0.52l0.25-3.83l0.93,0.06
		l4.89-14.09l8.51,0.56l3.01,14.6l0.93,0.06l-0.25,3.83l-9.16-0.59L104.02,36.96z M102.67,32.53l2.15,0.14l-0.66-4.74l-0.23-0.02
		L102.67,32.53z"/>
	<path class="st1" d="M135.75,40.91c-0.69,1.57-1.47,2.82-2.34,3.74c-0.87,0.92-1.81,1.57-2.82,1.95c-1.01,0.37-2.09,0.49-3.25,0.36
		c-1.15-0.14-2.35-0.48-3.59-1.02c-1.24-0.55-2.3-1.2-3.18-1.97c-0.88-0.76-1.51-1.64-1.92-2.64c-0.41-1-0.56-2.12-0.46-3.39
		c0.1-1.26,0.49-2.68,1.19-4.25c0.69-1.56,1.47-2.8,2.34-3.73c0.87-0.93,1.81-1.58,2.82-1.95c1.01-0.37,2.09-0.49,3.25-0.36
		c1.15,0.13,2.35,0.47,3.59,1.02c1.24,0.55,2.3,1.21,3.18,1.97c0.88,0.76,1.51,1.64,1.92,2.64c0.41,1,0.56,2.13,0.46,3.4
		C136.83,37.94,136.43,39.35,135.75,40.91 M125.43,42.12c0.49,0.21,0.9,0.25,1.26,0.11c0.35-0.14,0.65-0.49,0.9-1.05l2.85-6.47
		c0.25-0.56,0.3-1.01,0.17-1.37c-0.13-0.36-0.44-0.64-0.93-0.86c-0.49-0.21-0.9-0.25-1.26-0.1c-0.35,0.14-0.65,0.49-0.9,1.05
		l-2.85,6.47c-0.25,0.56-0.3,1.02-0.17,1.37C124.64,41.62,124.95,41.91,125.43,42.12"/>
	<polygon class="st1" points="36.22,101.95 36.66,107.45 34.42,107.63 34.35,106.81 28.17,107.31 28.23,108.13 25.98,108.31 
		25.54,102.82 27.79,102.64 27.86,103.46 34.03,102.96 33.97,102.14 	"/>
	<polygon class="st1" points="38.18,115.06 39.27,119.75 37.07,120.26 36.88,119.46 28.64,121.36 27.77,117.59 32.91,112.26 
		29.06,113.14 29.25,113.95 27.05,114.46 25.96,109.76 28.17,109.25 28.35,110.06 34.39,108.67 34.2,107.86 36.41,107.35 
		37.55,112.33 32.97,117.11 36.17,116.37 35.98,115.56 	"/>
	<polygon class="st1" points="39.26,119.31 43.25,128.87 40.16,130.16 39.25,127.97 40.25,127.55 39.91,126.74 34.19,129.13 
		34.56,130.02 32.48,130.89 30.25,125.55 32.33,124.68 32.7,125.57 38.43,123.18 38.09,122.37 37.08,122.79 36.17,120.6 	"/>
	<polygon class="st1" points="44.51,135.25 43.65,133.82 41.79,134.94 42.41,135.98 41.06,136.79 40.44,135.75 38.34,137.01 
		39.19,138.44 41.06,137.32 42.64,139.97 38.84,142.25 33.99,134.15 35.93,132.99 36.35,133.7 41.67,130.51 41.24,129.81 
		43.18,128.64 48.03,136.74 44.46,138.88 42.88,136.23 	"/>
	<path class="st1" d="M44.47,145.8l0.58,0.7l-1.75,1.44l-3.55-4.32l1.75-1.43l0.53,0.64l4.79-3.94l-0.53-0.64l1.74-1.44l4.11,4.99
		c0.36,0.43,0.64,0.86,0.84,1.28c0.2,0.42,0.31,0.83,0.32,1.22c0.01,0.39-0.09,0.78-0.28,1.17c-0.2,0.38-0.51,0.75-0.95,1.12
		c-0.47,0.38-0.95,0.63-1.46,0.72c-0.5,0.1-0.97,0.03-1.41-0.22l-0.1,0.1c0.45,0.77,0.31,1.45-0.42,2.05l-0.82,0.68l0.41,0.5
		l-1.75,1.44l-2.77-3.37l2.5-2.06c0.21-0.18,0.37-0.34,0.46-0.49c0.09-0.15,0.13-0.31,0.11-0.47c-0.02-0.16-0.08-0.33-0.18-0.5
		c-0.1-0.18-0.24-0.37-0.42-0.59L44.47,145.8z M47.99,143.87c0.17,0.2,0.35,0.32,0.54,0.33c0.19,0.02,0.41-0.08,0.65-0.27l0.38-0.32
		c0.24-0.2,0.37-0.39,0.39-0.58c0.02-0.19-0.05-0.39-0.22-0.59l-0.47-0.57l-1.74,1.43L47.99,143.87z"/>
	<polygon class="st1" points="60.59,150.05 64.25,153.18 62.78,154.9 62.16,154.36 56.67,160.79 53.72,158.28 54.69,150.93 
		52.12,153.94 52.75,154.48 51.28,156.2 47.61,153.07 49.08,151.35 49.71,151.88 53.73,147.17 53.11,146.63 54.57,144.92 
		58.46,148.23 57.62,154.8 59.75,152.31 59.12,151.77 	"/>
	<path class="st1" d="M63.86,162.56l0.71,0.42l0.35-1.06l-1.6-0.94l-0.74,0.82l0.71,0.42l-1.15,1.94l-4.06-2.39l1.15-1.95l0.48,0.28
		l6.3-6.1l4.32,2.55l-2.29,8.47l0.48,0.28l-1.15,1.95l-4.65-2.74L63.86,162.56z M64.32,159.87l1.09,0.65l0.91-2.66l-0.12-0.07
		L64.32,159.87z"/>
	<polygon class="st1" points="70.79,156.98 80.34,160.98 79.05,164.07 76.87,163.15 77.28,162.15 76.47,161.81 74.08,167.53 
		74.97,167.9 74.09,169.98 68.76,167.75 69.63,165.67 70.52,166.04 72.92,160.32 72.1,159.98 71.68,160.98 69.5,160.07 	"/>
	<polygon class="st1" points="80.21,160.76 85.52,162.22 84.92,164.4 84.12,164.18 82.47,170.16 83.27,170.38 82.67,172.55 
		77.36,171.09 77.96,168.91 78.75,169.13 80.4,163.16 79.6,162.94 	"/>
	<path class="st1" d="M94.93,169.14c-0.14,1-0.39,1.83-0.74,2.49c-0.34,0.66-0.77,1.17-1.29,1.55c-0.51,0.37-1.11,0.61-1.78,0.71
		c-0.68,0.11-1.41,0.1-2.2-0.01c-0.79-0.12-1.5-0.32-2.11-0.61c-0.62-0.29-1.12-0.69-1.51-1.19c-0.39-0.5-0.65-1.12-0.8-1.85
		c-0.14-0.73-0.14-1.6,0-2.59c0.14-0.99,0.39-1.82,0.73-2.48c0.35-0.66,0.78-1.18,1.29-1.55c0.51-0.37,1.11-0.61,1.78-0.71
		c0.68-0.11,1.41-0.1,2.2,0.01s1.5,0.32,2.11,0.61c0.62,0.29,1.12,0.69,1.51,1.19c0.39,0.5,0.65,1.12,0.8,1.85
		C95.08,167.29,95.08,168.15,94.93,169.14 M89.28,171.45c0.31,0.05,0.55,0,0.73-0.14c0.18-0.14,0.29-0.38,0.34-0.73l0.59-4.12
		c0.05-0.36,0.01-0.62-0.12-0.8c-0.13-0.18-0.35-0.29-0.66-0.34c-0.31-0.05-0.55,0-0.73,0.14c-0.18,0.14-0.29,0.38-0.34,0.73
		l-0.6,4.12c-0.05,0.36-0.01,0.62,0.12,0.8C88.75,171.29,88.97,171.41,89.28,171.45"/>
	<polygon class="st1" points="103.24,163.7 108.06,163.59 108.11,165.85 107.29,165.87 107.47,174.33 103.6,174.41 99.43,168.29 
		99.52,172.24 100.35,172.22 100.4,174.48 95.57,174.59 95.52,172.33 96.35,172.31 96.22,166.11 95.39,166.13 95.34,163.87 
		100.45,163.76 104.19,169.22 104.12,165.94 103.29,165.96 	"/>
	<path class="st1" d="M113.97,170.95l0.81-0.15l-0.42-1.03l-1.83,0.34l-0.02,1.11l0.82-0.15l0.41,2.23l-4.64,0.85l-0.41-2.23
		l0.54-0.1l0.75-8.74l4.93-0.91l3.82,7.9l0.54-0.1l0.41,2.22l-5.31,0.98L113.97,170.95z M112.56,168.62l1.25-0.23l-1.05-2.61
		l-0.14,0.02L112.56,168.62z"/>
	<polygon class="st1" points="117.52,161.63 123.15,159.68 123.89,161.81 122.69,162.23 124.72,168.09 125.89,167.68 125.47,166.48 
		128.07,165.59 129.22,168.92 121.03,171.75 120.29,169.62 121.07,169.35 119.04,163.49 118.26,163.76 	"/>
	<path class="st1" d="M136.81,162.21c0.26-0.15,0.42-0.31,0.48-0.45c0.07-0.14,0.05-0.29-0.05-0.45c-0.07-0.11-0.17-0.18-0.31-0.21
		c-0.14-0.03-0.38-0.02-0.72,0.04c-0.71,0.13-1.35,0.22-1.91,0.29c-0.56,0.06-1.05,0.06-1.49-0.02c-0.43-0.07-0.82-0.23-1.16-0.47
		c-0.34-0.24-0.65-0.59-0.92-1.06c-0.27-0.44-0.43-0.88-0.51-1.31c-0.07-0.43-0.03-0.87,0.14-1.3c0.16-0.43,0.46-0.87,0.9-1.31
		c0.44-0.44,1.04-0.88,1.79-1.34c0.69-0.41,1.38-0.73,2.06-0.95c0.69-0.23,1.3-0.35,1.84-0.36l1.27,2.11l-2.48,1.49
		c-0.14-0.23-0.29-0.34-0.47-0.35c-0.17-0.01-0.35,0.04-0.53,0.15c-0.26,0.15-0.43,0.3-0.5,0.44c-0.07,0.14-0.06,0.29,0.04,0.45
		c0.08,0.14,0.2,0.2,0.36,0.19c0.16-0.01,0.39-0.05,0.68-0.12c0.54-0.12,1.07-0.22,1.58-0.3c0.5-0.08,0.98-0.09,1.44-0.03
		c0.45,0.06,0.87,0.21,1.26,0.45c0.38,0.24,0.73,0.61,1.03,1.12c0.61,1.02,0.74,1.99,0.38,2.88c-0.36,0.9-1.18,1.73-2.46,2.49
		c-0.73,0.44-1.46,0.79-2.21,1.07c-0.75,0.27-1.37,0.45-1.87,0.51l-1.4-2.34l2.6-1.56c0.14,0.24,0.29,0.39,0.46,0.44
		C136.28,162.45,136.51,162.39,136.81,162.21"/>
	<path class="st1" d="M145.45,153.66l2.55-2.11l2.27,2.75c-0.07,0.2-0.17,0.44-0.29,0.7c-0.12,0.26-0.29,0.54-0.49,0.83
		c-0.2,0.29-0.45,0.61-0.75,0.93c-0.29,0.33-0.65,0.66-1.07,1.01c-0.62,0.52-1.25,0.9-1.88,1.16c-0.63,0.26-1.26,0.36-1.9,0.32
		c-0.64-0.05-1.27-0.26-1.91-0.65c-0.64-0.38-1.28-0.96-1.92-1.74c-0.64-0.77-1.09-1.51-1.34-2.21c-0.26-0.7-0.36-1.37-0.29-2
		c0.07-0.63,0.29-1.23,0.67-1.8c0.37-0.57,0.87-1.11,1.48-1.62c0.43-0.35,0.82-0.64,1.2-0.87c0.37-0.22,0.73-0.41,1.05-0.56
		c0.33-0.14,0.63-0.25,0.91-0.32c0.28-0.07,0.54-0.13,0.76-0.17l2.19,2.65l-2.55,2.11l-0.63-0.76c-0.23-0.27-0.45-0.42-0.68-0.45
		c-0.22-0.02-0.45,0.07-0.7,0.26c-0.24,0.2-0.37,0.41-0.39,0.63c-0.02,0.22,0.08,0.48,0.31,0.75l2.65,3.21
		c0.23,0.28,0.45,0.43,0.68,0.45s0.46-0.06,0.7-0.26c0.24-0.2,0.37-0.41,0.39-0.63c0.02-0.22-0.08-0.47-0.31-0.75L145.45,153.66z"/>
	<polygon class="st1" points="148.03,142.13 151.57,138.07 153.27,139.55 152.73,140.18 157.41,144.24 157.95,143.62 159.65,145.1 
		156.12,149.17 154.41,147.68 154.88,147.15 153.16,145.66 151.81,147.22 153.52,148.71 153.98,148.18 155.68,149.66 152.15,153.73 
		150.45,152.25 150.99,151.62 146.31,147.56 145.77,148.18 144.06,146.7 147.6,142.63 149.3,144.12 148.84,144.65 150.42,146.02 
		151.78,144.46 150.2,143.09 149.73,143.62 	"/>
	<path class="st1" d="M161.38,132.19c0.86,0.53,1.52,1.09,1.99,1.67c0.47,0.58,0.77,1.18,0.91,1.8c0.14,0.62,0.12,1.26-0.05,1.92
		c-0.17,0.66-0.46,1.33-0.88,2.01c-0.42,0.68-0.89,1.24-1.4,1.69c-0.51,0.45-1.08,0.75-1.69,0.91c-0.61,0.15-1.29,0.15-2.01,0
		c-0.73-0.15-1.52-0.5-2.38-1.03c-0.85-0.53-1.51-1.08-1.99-1.66c-0.47-0.58-0.78-1.18-0.91-1.8c-0.14-0.62-0.12-1.26,0.05-1.92
		c0.17-0.66,0.46-1.33,0.88-2.01c0.42-0.68,0.88-1.25,1.4-1.7c0.51-0.45,1.08-0.75,1.69-0.91c0.61-0.16,1.29-0.15,2.02,0
		C159.74,131.32,160.53,131.67,161.38,132.19 M161.26,138.29c0.16-0.27,0.22-0.51,0.16-0.73c-0.05-0.22-0.24-0.42-0.54-0.61
		l-3.54-2.18c-0.31-0.19-0.56-0.26-0.78-0.21c-0.22,0.05-0.41,0.2-0.58,0.47c-0.16,0.27-0.22,0.51-0.16,0.73
		c0.06,0.22,0.24,0.42,0.54,0.61l3.54,2.18c0.31,0.19,0.57,0.26,0.79,0.21C160.91,138.72,161.1,138.56,161.26,138.29"/>
	<path class="st1" d="M165.72,121.9c0.93,0.39,1.68,0.83,2.23,1.33c0.55,0.5,0.95,1.04,1.18,1.63c0.23,0.59,0.31,1.22,0.25,1.9
		c-0.06,0.68-0.25,1.39-0.56,2.12c-0.31,0.74-0.68,1.37-1.12,1.89c-0.44,0.53-0.95,0.91-1.53,1.16c-0.58,0.25-1.25,0.35-1.99,0.31
		c-0.75-0.04-1.58-0.25-2.51-0.65c-0.92-0.39-1.67-0.83-2.22-1.33c-0.56-0.5-0.95-1.05-1.18-1.64c-0.23-0.59-0.32-1.22-0.25-1.9
		c0.07-0.68,0.25-1.39,0.56-2.12c0.31-0.74,0.68-1.37,1.12-1.89c0.44-0.53,0.95-0.91,1.53-1.16c0.58-0.25,1.24-0.36,1.99-0.31
		C163.96,121.3,164.79,121.52,165.72,121.9 M166.55,127.95c0.12-0.29,0.14-0.53,0.05-0.74c-0.08-0.2-0.3-0.38-0.63-0.51l-3.84-1.6
		c-0.33-0.14-0.6-0.17-0.81-0.08c-0.21,0.08-0.37,0.27-0.49,0.56c-0.12,0.29-0.14,0.54-0.05,0.74c0.09,0.2,0.3,0.38,0.63,0.51
		l3.84,1.6c0.33,0.14,0.6,0.17,0.81,0.08C166.27,128.43,166.43,128.24,166.55,127.95"/>
	<polygon class="st1" points="160.64,120.02 162.13,114.26 164.31,114.82 164,116.05 170,117.6 170.31,116.4 169.08,116.09 
		169.77,113.43 173.18,114.32 171.01,122.71 168.82,122.14 169.03,121.34 163.03,119.78 162.82,120.58 	"/>
	<path class="st1" d="M171.47,108.66c0.03-0.3,0.02-0.52-0.06-0.66c-0.07-0.14-0.2-0.22-0.39-0.24c-0.13-0.02-0.25,0.02-0.36,0.12
		c-0.11,0.09-0.24,0.29-0.41,0.59c-0.34,0.65-0.65,1.21-0.94,1.68c-0.29,0.48-0.6,0.87-0.92,1.17c-0.32,0.3-0.68,0.51-1.08,0.63
		c-0.4,0.12-0.87,0.15-1.41,0.08c-0.51-0.06-0.96-0.19-1.34-0.4c-0.39-0.21-0.7-0.51-0.95-0.9c-0.24-0.39-0.41-0.9-0.49-1.51
		c-0.08-0.61-0.07-1.36,0.03-2.24c0.09-0.79,0.26-1.53,0.51-2.22c0.24-0.68,0.52-1.24,0.84-1.67l2.45,0.29l-0.34,2.87
		c-0.27-0.03-0.45,0.02-0.57,0.15c-0.11,0.14-0.18,0.31-0.2,0.52c-0.03,0.3-0.02,0.52,0.04,0.66c0.06,0.14,0.19,0.22,0.38,0.24
		c0.15,0.02,0.27-0.04,0.37-0.17c0.09-0.13,0.2-0.34,0.32-0.61c0.24-0.51,0.48-0.99,0.72-1.43c0.25-0.45,0.53-0.83,0.86-1.16
		c0.32-0.32,0.7-0.56,1.12-0.72c0.43-0.16,0.93-0.2,1.51-0.14c1.19,0.14,2.02,0.63,2.51,1.46c0.49,0.83,0.65,1.99,0.47,3.47
		c-0.1,0.84-0.27,1.64-0.5,2.4c-0.24,0.76-0.48,1.36-0.74,1.8l-2.71-0.32l0.36-3.01c0.27,0.03,0.48,0,0.63-0.09
		C171.33,109.23,171.43,109.01,171.47,108.66"/>
</g>
</svg>
