<?xml version="1.0" encoding="UTF-8"?><svg id="a" xmlns="http://www.w3.org/2000/svg" viewBox="0 0 60 60"><defs><style>.b{fill:#fff;}.c{fill:#1d2362;}.d{fill:#009c3d;}.e{fill:#272b5d;}</style></defs><path class="c" d="M30,1.02C13.99,1.02,1.02,14,1.02,30s12.97,28.98,28.98,28.98,28.98-12.97,28.98-28.98S46,1.02,30,1.02"/><path class="d" d="M49.53,29.96c0,10.78-8.74,19.51-19.51,19.51S10.5,40.74,10.5,29.96,19.24,10.45,30.02,10.45s19.51,8.74,19.51,19.51"/><path class="e" d="M48.57,30.02c0-2.3-.43-4.5-1.2-6.53-.12-.29-.14-.46-.27-.68-2.81-6.58-9.35-11.2-16.94-11.2-10.15,0-18.41,8.26-18.41,18.41,0,2.95,.7,5.74,1.94,8.22,.02,.1,.06,.19,.13,.26,3.07,5.9,9.24,9.93,16.33,9.93s13.14-3.96,16.24-9.75c.08-.21,.23-.35,.36-.71,.98-2.05,1.6-4.31,1.76-6.69,.07-.75,.05-1.06,.05-1.26m-2.85,7.93c-.41,.21-1.15,.56-2.24,.97,.78-1.73,1.35-3.8,1.55-6.26,1.08-.37,1.94-.7,2.52-.93-.22,2.22-.85,4.32-1.83,6.22m1.91-7.93c0,.22,0,.43-.02,.65-.46,.19-1.33,.54-2.52,.96,.02-.45,.03-.9,.02-1.37-.03-2.08-.29-3.91-.72-5.54,.95-.31,1.68-.58,2.14-.77,.7,1.89,1.09,3.94,1.09,6.07m-30.56,.24c0-1.73,.15-3.33,.44-4.83,1.33,.47,2.98,.95,4.9,1.3-.16,1.13-.25,2.29-.22,3.46,.03,1.34,.19,2.64,.44,3.9-2.07-.38-3.9-.92-5.42-1.46-.1-.76-.15-1.55-.15-2.38m20.71-.09c.18,1.19,.2,2.34,.1,3.45-2.3,.48-4.87,.86-7.57,.99v-7.33c2.39-.1,4.64-.37,6.67-.72,.34,1.16,.61,2.37,.8,3.61m-7.47,16.98v-4.91c1.62-.06,3.12-.17,4.49-.34-1.82,2.8-3.87,4.7-4.49,5.25m-.96-.48c-.52-.71-1.62-2.29-2.75-4.45,.65,.03,1.33,.05,2.04,.05,.23,0,.47,0,.71,0v4.41Zm-6.2-16.49c-.03-1.11,.05-2.21,.21-3.28,1.63,.25,3.43,.41,5.39,.41,.2,0,.4,0,.6,0v7.34c-2.02,.05-3.94-.1-5.7-.37-.28-1.32-.46-2.7-.5-4.1m10.38-11.55c-1.03,.2-2.12,.35-3.22,.41v-5.18c.78,.99,1.99,2.64,3.22,4.77m-2.54-5.46c1.34,.3,3.62,.98,5.9,2.48,.67,.44,1.3,.93,1.88,1.44-1.14,.44-2.61,.94-4.26,1.32-1.35-2.37-2.69-4.2-3.52-5.25m-1.64,5.88c-1.18,0-2.29-.14-3.3-.35,1.31-2.65,2.7-4.62,3.3-5.42v5.77Zm0,.97v6.32c-2.13,.03-4.08-.13-5.82-.4,.44-2.3,1.23-4.46,2.09-6.34,1.13,.25,2.38,.42,3.73,.42m-.82,15.6c.27,0,.54,0,.82-.02v5.7c-1.16,.02-2.24,0-3.25-.07-.84-1.73-1.65-3.75-2.21-5.94,1.45,.2,3.01,.33,4.64,.33m1.78,5.66v-5.71c2.64-.13,5.16-.49,7.44-.95-.37,2.32-1.26,4.42-2.3,6.23-1.54,.21-3.26,.36-5.13,.43m0-14.96v-6.32c1.28-.06,2.54-.24,3.71-.49,.97,1.79,1.93,3.86,2.67,6.12-1.95,.34-4.1,.59-6.38,.68m4.68-7.02c1.81-.44,3.39-1,4.54-1.46,1.69,1.73,2.92,3.81,3.69,6.25-1.49,.46-3.39,.96-5.58,1.38-.73-2.28-1.68-4.36-2.65-6.17m4.75-2.59c-.78-.74-1.57-1.35-2.33-1.85-1.45-.95-2.88-1.59-4.11-2.01,2.8,.51,5.37,1.69,7.53,3.37-.24,.11-.61,.29-1.09,.49m-18.94,0c-.6-.34-.94-.59-.95-.6-.05-.04-.1-.06-.16-.08,1.92-1.44,4.16-2.49,6.57-3.04-1.03,.43-2.2,1.03-3.38,1.88-.68,.5-1.39,1.11-2.09,1.84m2.63-1.04c1.7-1.25,3.42-1.93,4.66-2.3-.76,1.07-1.93,2.85-3.03,5.11-1.36-.37-2.51-.85-3.38-1.29,.54-.54,1.12-1.05,1.75-1.51m1.21,3.69c-.86,1.9-1.64,4.08-2.08,6.42-1.92-.36-3.55-.84-4.85-1.31,.63-2.56,1.73-4.75,3.28-6.55,.91,.48,2.15,1.02,3.65,1.44m-1.8,15.77c.52,2.21,1.29,4.24,2.12,6.01-1.82-.17-3.38-.47-4.7-.81-1.31-1.77-2.37-3.94-2.88-6.59,1.55,.53,3.39,1.04,5.46,1.39m2.61,7.01c.91,1.8,1.83,3.26,2.49,4.22-1.87-.85-4.48-2.37-6.68-4.81,1.23,.26,2.62,.46,4.18,.58m10.62-.42c2.14-.31,3.94-.72,5.42-1.15-1.07,1.61-2.47,2.98-4.19,4.09-1.97,1.27-3.97,1.92-5.34,2.24,1.09-1.08,2.71-2.86,4.11-5.19m.61-1.07c.98-1.83,1.77-3.94,2.07-6.26,2.01-.44,3.8-.95,5.28-1.42-.23,2.4-.84,4.52-1.81,6.37-1.44,.46-3.29,.94-5.54,1.31m2.17-7.26c.07-1.09,.04-2.22-.13-3.38-.19-1.25-.47-2.47-.8-3.64,2.18-.42,4.07-.93,5.56-1.38,.41,1.62,.64,3.37,.67,5.27,0,.58,0,1.14-.04,1.69-1.44,.47-3.23,.99-5.25,1.45m5.26-9.61c-.86-2.71-2.19-4.79-3.65-6.36,.66-.29,1.05-.49,1.11-.52,.02-.01,.04-.03,.06-.05,1.94,1.69,3.5,3.8,4.54,6.19-.45,.18-1.15,.44-2.05,.73m-25.02-7.3c0,.14,.06,.28,.18,.37,.04,.03,.35,.26,.87,.57-1.36,1.64-2.59,3.81-3.34,6.69-1.45-.58-2.35-1.08-2.61-1.23,1.12-2.5,2.81-4.69,4.9-6.4m-2.51,8.59c-.32,1.53-.51,3.24-.51,5.17,0,.69,.04,1.35,.11,2-1.85-.73-3.08-1.4-3.49-1.64,0-.2-.02-.4-.02-.6,0-2.19,.41-4.29,1.15-6.22,.4,.23,1.35,.74,2.76,1.3m-3.83,6.67c.72,.38,1.93,.99,3.56,1.6,.41,2.59,1.32,4.75,2.45,6.53-2.54-.83-3.89-1.77-4.23-2.02-.94-1.87-1.56-3.93-1.78-6.11m6.91,9.42c1.09,1.41,2.29,2.55,3.43,3.42,1.65,1.27,3.28,2.14,4.56,2.72-5.05-.72-9.41-3.62-12.11-7.7,.95,.49,2.31,1.07,4.12,1.57m16.45,5.26c.55-.27,1.11-.58,1.67-.94,1.73-1.11,3.62-2.8,5.05-5.33,.81-.27,1.49-.53,2.03-.77-2.05,3.21-5.12,5.71-8.75,7.03"/><path class="b" d="M32.42,20.64l-.07-.03h-.08c-.39,.08-1.07,.19-1.24,.19-.25,0-.51,.2-.61,.46-.08,.22-.02,.43,.15,.57,.14,.12,.32,.19,.48,.25,.14,.05,.3,.11,.34,.18,.15,.21,.45,.24,.74,.27,.11,.01,.26,.03,.29,.03,.09,.12,.19,.14,.26,.14,.16,0,.25-.12,.31-.2,.02-.03,.06-.09,.09-.09h.08c.36,0,.47-.33,.52-.48,.01-.04,.03-.09,.03-.1l.09-.13-.03-.12c-.07-.29-.78-.66-1.37-.92"/><path class="b" d="M34.01,21.55c.03,.29,.28,.63,.86,.65,.09,0,.18,0,.25,0h.36c.24,0,.27,0,.37,.16,.13,.18,.32,.28,.56,.28,.3,0,.61-.16,.69-.21l.14-.1-.03-.16s-.02-.06-.03-.08c0-.01,.02-.02,.02-.03,.13-.21,.02-.48-.01-.57-.27-.67-1.1-1.08-2.05-.97h-.09l-.06,.07s-.15,.14-.5,.23c-.32,.08-.53,.4-.5,.74"/><path class="b" d="M37.57,24c-.13-.1-.26-.2-.37-.31-.17-.17-.46-.26-.88-.26s-1.12,.11-1.58,.28l.05-.25-.38,.09c-.07,.02-.29,.08-.48,.2-.26-.28-.81-.62-1.91-.68-.91-.05-1.05,.32-1.07,.54-.04,.55,.81,1.25,1.12,1.29,.05,0,.12,.01,.2,.02,1.1,.12,1.27,.27,1.3,.33l.08,.3,.28-.14c.09-.04,.18-.14,.22-.29,.46,.04,1.19,.12,1.42,.19,.09,.03,.2,.07,.33,.12,.35,.13,.78,.3,1.13,.3,.1,0,.19-.01,.27-.04,.09-.03,.15-.03,.22-.04,.29-.01,.46-.1,.61-.55,.19-.56-.22-.87-.55-1.12"/><path class="b" d="M31,25.23c-.44,0-1.1-.11-1.32-.2v-.09c.08-.1,.15-.21,.21-.36,.2-.5,.09-1.18-.32-2.1,.01-.13,.05-.27,.08-.32,.12-.03,.26-.15,.31-.49,.03-.16,.15-1.3-1.03-2.42,.25,.05,.41,.13,.57,.2,.18,.09,.35,.17,.58,.17,.09,0,.19-.01,.29-.04,.19-.05,.38-.07,.55-.09,.38-.05,.76-.1,.87-.46,.05-.18,.09-.37,.08-.54,.11,.11,.32,.17,.6,.24,.2,.05,.4,.08,.6,.08,.5,0,.89-.15,1.05-.24,0,0,.04-.01,.06-.02,.21-.05,.45-.15,.54-.68,.03-.16-.01-.3-.11-.42-.27-.33-.95-.37-1.73-.39h-.3c-.29,.05-.79,.29-.79,.81,0,.09,0,.15-.02,.2,0,.03,0,.06,0,.09-.06-.08-.18-.16-.38-.16-.1,0-.26-.04-.43-.09-.32-.09-.74-.2-1.17-.16-.73,.08-1.31,.96-1.38,1.06h0c-.3-.21-.64-.42-1.05-.61l-.09-.02c-.64-.03-1.4-.08-1.49-.11-.14-.16-.48-.55-1.33-.55-.59,0-1.32,.18-2.2,.54-1.14,.47-1.92,1.32-2.27,2.46-.41,1.34-.13,3,.72,4.27,.04,.04,.89,.91,1.41,1.36,.2,.18,.43,.29,.7,.43,.49,.24,1.16,.58,2.26,1.55,.9,.8,1.24,1.1,1.36,1.22,.04,.23,.22,.74,1.16,1.12,.31,.12,.54,.18,.73,.18,.61,0,.64-.57,.67-1.03v-.12c.06-.86-.88-1.51-1.37-1.65-.29-.09-1.55-1.16-1.86-1.62,.27-.15,1.15-.32,1.65-.42,.68-.13,1.1-.22,1.31-.33,.06-.03,.13-.06,.2-.09,.05-.02,.11-.05,.17-.07-.07,.27-.03,.58,.29,.82,.11,.08,.21,.2,.31,.31,.23,.27,.52,.61,1.12,.61,.23,0,.38,.06,.51,.1,.09,.03,.17,.06,.25,.06,.33,0,.38-.37,.41-.56,.06-.44-.04-.85-.27-1.12-.18-.21-.44-.33-.72-.33"/><path class="b" d="M36.37,27.1l-.05-.05c-.16-.14-.4-.4-.43-.52-.06-.2-.27-.33-.51-.33-.19,0-.34,.08-.42,.22-.16-.03-.34-.05-.46,0-.06,.02-.26,.04-.5,.04-.14,0-.25,0-.33-.01,.01-.08,0-.18-.06-.28-.05-.06-.14-.14-.32-.14h-.05c-.19,.02-.32,.07-.44,.13-.11,.05-.22,.1-.4,.13l-.14,.02-.05,.13c-.21,.54-.1,.67-.05,.73,.05,.07,.14,.11,.26,.18,.12,.07,.34,.19,.39,.28,.22,.37,.63,.37,.77,.37,.15,0,.25-.08,.34-.16,.07,.06,.12,.16,.14,.2l.08,.22,.23-.07s.15-.04,.22-.03c.03,.13,.14,.36,.58,.36,.22,0,.49-.06,.57-.1,.02,0,.04,0,.06,0,.05,0,.09,.01,.14,.01,.16,0,.44-.07,.49-.53,.05-.48,0-.67,0-.72l-.02-.07Z"/><path class="b" d="M27.75,38.84c-.12-.08-.26-.17-.3-.24-.11-.24-.39-.33-.66-.41-.1-.03-.26-.08-.27-.08-.08-.18-.23-.2-.29-.2-.13,0-.21,.08-.28,.14-.03,.02-.08,.07-.11,.07-.06-.02-.12-.03-.18-.03-.29,0-.42,.24-.5,.38-.02,.03-.05,.08-.05,.09l-.12,.11v.13c0,.31,.72,.88,1.15,1.18l.06,.04h.08c.4,.02,1.09,.05,1.25,.09,.03,0,.07,.01,.11,.01h0c.24,0,.5-.16,.61-.39,.09-.18,.06-.38-.06-.54-.12-.14-.28-.25-.42-.34"/><path class="b" d="M23.52,39.54l.07-.04s.18-.1,.53-.12c.33-.02,.61-.29,.64-.63,.03-.29-.14-.68-.7-.81-.19-.04-.34-.07-.46-.1-.39-.08-.39-.08-.47-.26-.06-.15-.24-.41-.71-.41-.23,0-.44,.06-.5,.09l-.16,.07v.16s0,.06,0,.09c-.02,.02-.04,.03-.05,.05-.1,.12-.13,.3-.09,.54,.13,.72,.87,1.28,1.8,1.37h.09Z"/><path class="b" d="M22.08,36.01c.29,.46,1.24,.52,1.78,.52,.26,0,.47-.01,.64-.04l-.1,.23h.39c.07-.01,.3-.02,.51-.11,.2,.33,.66,.78,1.73,1.06,.21,.06,.38,.08,.53,.08,.5,0,.61-.31,.63-.45,.09-.51-.53-1.33-.84-1.44-.04-.02-.11-.04-.19-.06-1.05-.34-1.19-.53-1.2-.59l-.02-.31-.3,.08c-.09,.02-.2,.1-.28,.24-.44-.14-1.14-.37-1.35-.48-.08-.04-.18-.11-.3-.18-.41-.26-.93-.59-1.31-.54-.1,.01-.17,0-.23-.01-.35-.06-.53,.11-.71,.41-.3,.51,.04,.89,.31,1.2,.1,.12,.21,.24,.3,.38"/><path class="b" d="M23.64,32.9c.14,.2,.31,.48,.32,.6,.04,.43,.67,.56,.89,.3,.13,.06,.28,.1,.41,.1h.06c.18,0,.58,.08,.81,.15-.03,.08-.05,.19,0,.29,.06,.11,.17,.18,.33,.2,.05,0,.1,.01,.15,.01h0c.12,0,.22-.02,.31-.04,.1-.02,.2-.04,.34-.04h.22l.08-.11c.32-.48,.24-.64,.2-.71-.04-.08-.11-.14-.22-.23-.1-.09-.29-.25-.33-.35-.14-.41-.54-.49-.67-.52h-.08c-.12,0-.2,.04-.27,.09-.06-.08-.09-.19-.1-.23l-.04-.23-.29,.02c-.08,0-.13,0-.16-.02,0-.1-.04-.19-.1-.27-.18-.21-.56-.24-.76-.24-.06,0-.17,0-.21,.02-.02,0-.04-.01-.06-.02-.07-.02-.15-.05-.25-.05-.16,0-.36,.07-.47,.43-.14,.46-.14,.66-.14,.71v.07l.05,.06Z"/><path class="b" d="M38.47,38.32s-.68-1.08-1.1-1.63c-.16-.22-.36-.37-.6-.56-.43-.34-1.02-.81-1.89-1.99-.72-.97-.98-1.33-1.08-1.47,.01-.24-.07-.77-.91-1.34-1.13-.76-1.37-.09-1.54,.54l-.03,.11c-.23,.83,.55,1.66,1,1.9,.27,.14,1.27,1.46,1.48,1.97-.13,.04-.43,.08-1.12,.08-.19,0-.39,0-.58,0-.18,0-.36,0-.52,0-.44,0-.68,.02-.83,.06-.06,.02-.14,.03-.21,.05-.06,.01-.12,.02-.18,.04,.12-.25,.15-.57-.11-.86-.09-.11-.16-.23-.24-.37-.17-.32-.38-.71-.97-.83-.23-.05-.36-.14-.48-.21-.1-.06-.19-.12-.31-.12-.27,0-.38,.29-.44,.47-.15,.42-.14,.84,.04,1.16,.13,.24,.36,.41,.63,.47,.43,.09,1.06,.34,1.25,.47v.09c-.11,.08-.21,.18-.3,.31-.29,.45-.33,1.14-.12,2.12-.04,.12-.1,.25-.15,.3-.22,.02-.35,.27-.42,.48-.21,.62-.13,1.56,.54,2.53-.24-.1-.39-.22-.52-.32-.19-.15-.4-.3-.75-.3h-.07s-.09,0-.13,0c-.15,0-.29-.01-.42-.02-.12-.01-.24-.02-.34-.02-.12,0-.45,0-.61,.29-.09,.17-.17,.34-.19,.51-.09-.13-.27-.23-.54-.36-.42-.21-.83-.25-1.1-.25-.25,0-.44,.04-.55,.07,0,0-.04,0-.06,0-.22,0-.47,.05-.67,.55-.06,.15-.05,.3,.02,.43,.2,.38,.85,.56,1.62,.74l.23,.06h.07c.37,0,.83-.16,.93-.62,.02-.08,.04-.15,.06-.2,.01-.03,.02-.06,.02-.09,.05,.09,.14,.2,.34,.24,.09,.02,.24,.1,.4,.18,.3,.16,.68,.35,1.12,.39,.03,0,.07,0,.1,0,.7,0,1.39-.68,1.46-.76h0c.25,.27,.55,.55,.9,.81l.09,.04c.62,.16,1.35,.37,1.43,.42,.14,.24,.49,.88,1.99,.88h0c.42,0,.92-.05,1.46-.15,1.21-.23,2.15-.9,2.73-1.94,.67-1.23,.75-2.91,.18-4.33"/><path class="b" d="M30,60c-8.01,0-15.55-3.12-21.21-8.79C3.12,45.55,0,38.01,0,30S3.12,14.45,8.79,8.79C14.45,3.12,21.99,0,30,0s15.55,3.12,21.21,8.79c5.67,5.67,8.79,13.2,8.79,21.21s-3.12,15.55-8.79,21.21c-5.67,5.67-13.2,8.79-21.21,8.79M30,1.28C14.16,1.28,1.28,14.16,1.28,30s12.88,28.72,28.72,28.72,28.72-12.88,28.72-28.72S45.84,1.28,30,1.28"/><g><path class="b" d="M15.51,6.69l3.61-1.49,1.93,2.23-.24-2.93,3.48-1.43,.51,1.24-.45,.19,1.4,3.39,.45-.19,.51,1.24-3.02,1.24-.51-1.24,.45-.19-1.23-2.98,.24,4.84-.81,.34-3.45-3.53,1.24,2.99,.45-.19,.51,1.24-2.64,1.09-.51-1.24,.45-.19-1.4-3.39-.45,.19-.51-1.24Z"/><path class="b" d="M31.4,8.03l.49,.03-.1-.65-1.1-.07-.17,.63,.49,.03-.09,1.34-2.79-.18,.09-1.34,.33,.02,1.7-4.91,2.96,.19,1.05,5.09,.33,.02-.09,1.34-3.19-.21,.09-1.34Zm-.47-1.54l.75,.05-.23-1.65h-.08l-.44,1.6Z"/><path class="b" d="M42.46,9.41c-.24,.55-.51,.98-.82,1.3s-.63,.55-.98,.68-.73,.17-1.13,.13c-.4-.05-.82-.17-1.25-.36-.43-.19-.8-.42-1.11-.68-.31-.27-.53-.57-.67-.92-.14-.35-.19-.74-.16-1.18,.03-.44,.17-.93,.41-1.48,.24-.54,.51-.98,.81-1.3,.3-.32,.63-.55,.98-.68s.73-.17,1.13-.13c.4,.05,.82,.17,1.25,.36,.43,.19,.8,.42,1.11,.68,.31,.27,.53,.57,.67,.92,.14,.35,.19,.74,.16,1.19-.03,.44-.17,.94-.41,1.48Zm-3.59,.42c.17,.07,.32,.09,.44,.04,.12-.05,.23-.17,.31-.37l.99-2.25c.09-.19,.11-.35,.06-.48-.05-.12-.15-.22-.32-.3-.17-.07-.32-.09-.44-.04s-.23,.17-.31,.37l-.99,2.25c-.09,.19-.11,.35-.06,.48s.15,.22,.32,.3Z"/></g><g><path class="b" d="M7.77,30.68l.16,1.91-.78,.06-.02-.29-2.15,.17,.02,.29-.78,.06-.16-1.91,.78-.06,.02,.29,2.15-.17-.02-.29,.78-.06Z"/><path class="b" d="M8.46,35.25l.38,1.64-.77,.18-.06-.28-2.87,.66-.3-1.31,1.79-1.86-1.34,.31,.06,.28-.77,.18-.38-1.64,.77-.18,.06,.28,2.1-.49-.06-.28,.77-.18,.4,1.74-1.6,1.66,1.11-.26-.06-.28,.77-.18Z"/><path class="b" d="M8.83,36.73l1.39,3.33-1.08,.45-.32-.76,.35-.15-.12-.28-1.99,.83,.13,.31-.73,.3-.78-1.86,.73-.3,.13,.31,1.99-.83-.12-.28-.35,.15-.32-.76,1.08-.45Z"/><path class="b" d="M10.66,42.29l-.3-.5-.65,.39,.22,.36-.47,.28-.22-.36-.73,.44,.3,.5,.65-.39,.55,.92-1.33,.79-1.69-2.82,.68-.4,.15,.25,1.85-1.11-.15-.25,.68-.4,1.69,2.82-1.24,.74-.55-.92,.57-.34Z"/><path class="b" d="M10.65,45.96l.2,.24-.61,.5-1.24-1.5,.61-.5,.18,.22,1.67-1.37-.18-.22,.61-.5,1.43,1.74c.12,.15,.22,.3,.29,.45s.11,.29,.11,.43c0,.14-.03,.27-.1,.41-.07,.13-.18,.26-.33,.39-.16,.13-.33,.22-.51,.25-.17,.03-.34,0-.49-.08l-.03,.03c.16,.27,.11,.51-.14,.72l-.29,.23,.14,.17-.61,.5-.97-1.17,.87-.72c.07-.06,.13-.12,.16-.17,.03-.05,.05-.11,.04-.16,0-.06-.03-.11-.06-.17s-.09-.13-.15-.21l-.61,.5Zm1.22-.67c.06,.07,.12,.11,.19,.12,.07,0,.14-.03,.23-.1l.13-.11c.08-.07,.13-.14,.14-.2,0-.07-.02-.14-.08-.21l-.16-.2-.61,.5,.16,.2Z"/><path class="b" d="M16.26,47.44l1.28,1.09-.51,.6-.22-.19-1.91,2.24-1.03-.88,.34-2.56-.89,1.05,.22,.19-.51,.6-1.28-1.09,.51-.6,.22,.19,1.4-1.64-.22-.19,.51-.6,1.35,1.16-.29,2.29,.74-.87-.22-.19,.51-.6Z"/><path class="b" d="M17.4,51.8l.25,.15,.12-.37-.56-.33-.26,.29,.25,.15-.4,.68-1.41-.83,.4-.68,.17,.1,2.2-2.13,1.5,.89-.8,2.95,.17,.1-.4,.68-1.62-.96,.4-.68Zm.16-.94l.38,.22,.32-.93-.04-.02-.66,.73Z"/><path class="b" d="M19.82,49.86l3.33,1.39-.45,1.08-.76-.32,.15-.35-.28-.12-.83,1.99,.31,.13-.3,.73-1.86-.78,.3-.73,.31,.13,.83-1.99-.28-.12-.15,.35-.76-.32,.45-1.08Z"/><path class="b" d="M23.1,51.17l1.85,.51-.21,.76-.28-.08-.57,2.08,.28,.08-.21,.76-1.85-.51,.21-.76,.28,.08,.57-2.08-.28-.08,.21-.76Z"/><path class="b" d="M28.23,54.09c-.05,.35-.14,.64-.26,.87-.12,.23-.27,.41-.45,.54-.18,.13-.39,.21-.62,.25s-.49,.04-.77,0c-.28-.04-.52-.11-.74-.21-.21-.1-.39-.24-.52-.42-.13-.17-.23-.39-.28-.64-.05-.25-.05-.56,0-.9,.05-.35,.14-.63,.26-.87s.27-.41,.45-.54c.18-.13,.39-.21,.62-.25,.23-.04,.49-.04,.77,0,.28,.04,.52,.11,.74,.21,.21,.1,.39,.24,.52,.42,.13,.17,.23,.39,.28,.65,.05,.26,.05,.56,0,.9Zm-1.97,.81c.11,.02,.19,0,.25-.05s.1-.13,.12-.26l.21-1.43c.02-.12,0-.22-.04-.28s-.12-.1-.23-.12c-.11-.02-.19,0-.25,.05-.06,.05-.1,.13-.12,.26l-.21,1.43c-.02,.12,0,.22,.04,.28,.05,.06,.12,.1,.23,.12Z"/><path class="b" d="M31.13,52.2l1.68-.04,.02,.79h-.29l.07,2.95-1.35,.03-1.45-2.13,.03,1.38h.29l.02,.78-1.68,.04-.02-.79h.29l-.05-2.17h-.29l-.02-.78,1.78-.04,1.3,1.9-.03-1.14h-.29l-.02-.78Z"/><path class="b" d="M34.87,54.73l.28-.05-.15-.36-.64,.12v.39l.28-.05,.14,.77-1.61,.3-.14-.77,.19-.03,.26-3.05,1.72-.32,1.33,2.75,.19-.03,.14,.77-1.85,.34-.14-.77Zm-.49-.81l.43-.08-.37-.91h-.05l-.02,.99Z"/><path class="b" d="M36.11,51.48l1.96-.68,.26,.74-.42,.14,.71,2.04,.41-.14-.14-.42,.9-.31,.4,1.16-2.85,.99-.26-.74,.27-.09-.71-2.04-.27,.09-.26-.74Z"/><path class="b" d="M42.83,51.68c.09-.05,.15-.11,.17-.16,.02-.05,.02-.1-.02-.16-.02-.04-.06-.06-.11-.07-.05,0-.13,0-.25,.01-.25,.05-.47,.08-.67,.1-.19,.02-.37,.02-.52,0-.15-.02-.29-.08-.4-.16-.12-.08-.23-.21-.32-.37-.09-.15-.15-.31-.18-.46-.03-.15,0-.3,.05-.45,.06-.15,.16-.3,.31-.46,.15-.15,.36-.31,.62-.47,.24-.14,.48-.25,.72-.33s.45-.12,.64-.12l.44,.74-.86,.52c-.05-.08-.1-.12-.16-.12-.06,0-.12,.02-.19,.05-.09,.05-.15,.11-.17,.15-.03,.05-.02,.1,.01,.16,.03,.05,.07,.07,.13,.06,.06,0,.13-.02,.24-.04,.19-.04,.37-.08,.55-.11s.34-.03,.5,0c.16,.02,.3,.07,.44,.16s.25,.21,.36,.39c.21,.36,.26,.69,.13,1-.13,.31-.41,.6-.86,.87-.25,.15-.51,.28-.77,.37s-.48,.16-.65,.18l-.49-.82,.91-.54c.05,.08,.1,.13,.16,.15,.06,.02,.14,0,.24-.06Z"/><path class="b" d="M45.84,48.7l.89-.73,.79,.96c-.02,.07-.06,.15-.1,.24-.04,.09-.1,.19-.17,.29s-.16,.21-.26,.32c-.1,.11-.23,.23-.37,.35-.22,.18-.44,.31-.66,.4-.22,.09-.44,.13-.66,.11s-.44-.09-.67-.23c-.22-.13-.45-.34-.67-.61-.22-.27-.38-.53-.47-.77-.09-.25-.12-.48-.1-.7,.02-.22,.1-.43,.23-.63,.13-.2,.3-.39,.52-.56,.15-.12,.29-.22,.42-.3,.13-.08,.25-.14,.37-.19s.22-.09,.32-.11,.19-.04,.26-.06l.76,.93-.89,.73-.22-.27c-.08-.1-.16-.15-.24-.16-.08,0-.16,.02-.24,.09-.08,.07-.13,.14-.14,.22s.03,.17,.11,.26l.92,1.12c.08,.1,.16,.15,.24,.16,.08,0,.16-.02,.24-.09s.13-.14,.14-.22c0-.08-.03-.16-.11-.26l-.25-.3Z"/><path class="b" d="M46.74,44.68l1.23-1.42,.59,.52-.19,.22,1.63,1.42,.19-.22,.59,.52-1.23,1.42-.59-.52,.16-.18-.6-.52-.47,.54,.6,.52,.16-.18,.59,.52-1.23,1.42-.59-.52,.19-.22-1.63-1.42-.19,.22-.59-.52,1.23-1.42,.59,.52-.16,.18,.55,.48,.47-.54-.55-.48-.16,.18-.59-.52Z"/><path class="b" d="M51.39,41.22c.3,.18,.53,.38,.69,.58,.16,.2,.27,.41,.32,.63s.04,.44-.02,.67-.16,.46-.31,.7-.31,.43-.49,.59c-.18,.16-.38,.26-.59,.32-.21,.05-.45,.05-.7,0-.25-.05-.53-.17-.83-.36-.3-.18-.53-.38-.69-.58-.16-.2-.27-.41-.32-.63-.05-.22-.04-.44,.02-.67,.06-.23,.16-.46,.31-.7s.31-.43,.49-.59c.18-.16,.38-.26,.59-.32,.21-.05,.45-.05,.7,0,.26,.06,.53,.17,.83,.36Zm-.04,2.13c.06-.09,.08-.18,.06-.25-.02-.08-.08-.15-.19-.21l-1.23-.76c-.11-.07-.2-.09-.27-.07-.08,.02-.14,.07-.2,.16-.06,.09-.08,.18-.06,.25,.02,.08,.08,.15,.19,.21l1.23,.76c.11,.07,.2,.09,.27,.07,.08-.02,.14-.07,.2-.16Z"/><path class="b" d="M52.9,37.63c.32,.14,.58,.29,.78,.46s.33,.36,.41,.57,.11,.43,.09,.66c-.02,.24-.09,.48-.19,.74-.11,.26-.24,.48-.39,.66-.15,.18-.33,.32-.53,.4s-.43,.12-.69,.11-.55-.09-.88-.23c-.32-.13-.58-.29-.77-.46-.19-.17-.33-.36-.41-.57s-.11-.43-.09-.66,.09-.48,.19-.74,.24-.48,.39-.66,.33-.32,.53-.4c.2-.09,.43-.12,.7-.11,.26,.02,.55,.09,.87,.22Zm.29,2.11c.04-.1,.05-.19,.02-.26-.03-.07-.1-.13-.22-.18l-1.34-.56c-.12-.05-.21-.06-.28-.03-.07,.03-.13,.09-.17,.19-.04,.1-.05,.19-.02,.26s.1,.13,.22,.18l1.34,.56c.12,.05,.21,.06,.28,.03,.07-.03,.13-.09,.17-.19Z"/><path class="b" d="M51.13,36.98l.52-2.01,.76,.2-.11,.43,2.09,.54,.11-.42-.43-.11,.24-.92,1.19,.31-.76,2.92-.76-.2,.07-.28-2.09-.54-.07,.28-.76-.2Z"/><path class="b" d="M54.91,33.02c.01-.1,0-.18-.02-.23-.03-.05-.07-.08-.14-.08-.04,0-.09,0-.12,.04-.04,.03-.09,.1-.14,.21-.12,.23-.23,.42-.33,.59s-.21,.3-.32,.41c-.11,.1-.24,.18-.38,.22-.14,.04-.3,.05-.49,.03-.18-.02-.33-.07-.47-.14-.13-.07-.25-.18-.33-.31-.09-.14-.14-.31-.17-.53s-.02-.47,.01-.78c.03-.28,.09-.53,.18-.77,.08-.24,.18-.43,.29-.58l.85,.1-.12,1c-.09-.01-.16,0-.2,.05s-.06,.11-.07,.18c-.01,.1,0,.18,.01,.23s.07,.08,.13,.09c.05,0,.1-.01,.13-.06,.03-.05,.07-.12,.11-.21,.08-.18,.17-.34,.25-.5,.09-.16,.19-.29,.3-.4,.11-.11,.24-.2,.39-.25,.15-.06,.32-.07,.53-.05,.41,.05,.7,.22,.88,.51,.17,.29,.23,.69,.16,1.21-.03,.29-.09,.57-.18,.83-.08,.26-.17,.47-.26,.63l-.94-.11,.12-1.05c.1,.01,.17,0,.22-.03,.05-.03,.08-.11,.1-.23Z"/></g></svg>